# xmcd
#
# Track frame offsets:
#	150
#	14598
#	30921
#	47019
#	66717
#	82590
#	98688
#	112986
#	125559
#	141282
#	156330
#	171078
#	185751
#
# Disc length: 2697 seconds
#
# Revision: 1
# Processed by: cddbd v1.5.2PL0 Copyright (c) Steve Scherf et al.
# Submitted via: audiograbber 1.83.01
#
DISCID=ab0a870d
DTITLE=Taylor Hicks - Taylor Hicks
DYEAR=2006
DGENRE=
TTITLE0=The Runaround
TTITLE1=Dream Myself Awake
TTITLE2=Heaven Knows
TTITLE3=Gonna Move
TTITLE4=Wherever I Lay My Hat
TTITLE5=Give Me Tonight
TTITLE6=Just to Feel That Way
TTITLE7=The Maze
TTITLE8=Places I've Been
TTITLE9=Soul Thing
TTITLE10=The Deal
TTITLE11=The Right Place
TTITLE12=Hell of a Day
EXTD=
EXTT0=
EXTT1=
EXTT2=
EXTT3=
EXTT4=
EXTT5=
EXTT6=
EXTT7=
EXTT8=
EXTT9=
EXTT10=
EXTT11=
EXTT12=
PLAYORDER=
